<svg id="visual" viewBox="0 0 900 600" width="900" height="600" xmlns="http://www.w3.org/2000/svg" xmlns:xlink="http://www.w3.org/1999/xlink" version="1.1"><path d="M762 600L739.8 585.7C717.7 571.3 673.3 542.7 660 514.2C646.7 485.7 664.3 457.3 678.5 428.8C692.7 400.3 703.3 371.7 704.7 343C706 314.3 698 285.7 691.5 257C685 228.3 680 199.7 660.3 171.2C640.7 142.7 606.3 114.3 609 85.8C611.7 57.3 651.3 28.7 671.2 14.3L691 0L900 0L900 14.3C900 28.7 900 57.3 900 85.8C900 114.3 900 142.7 900 171.2C900 199.7 900 228.3 900 257C900 285.7 900 314.3 900 343C900 371.7 900 400.3 900 428.8C900 457.3 900 485.7 900 514.2C900 542.7 900 571.3 900 585.7L900 600Z" fill="#d7e7ff" stroke-linecap="round" stroke-linejoin="miter"></path></svg>