<svg id="visual" viewBox="0 0 960 540" width="960" height="540" xmlns="http://www.w3.org/2000/svg" xmlns:xlink="http://www.w3.org/1999/xlink" version="1.1"><path d="M215 0L212.7 18C210.3 36 205.7 72 210.8 108C216 144 231 180 235.8 216C240.7 252 235.3 288 221 324C206.7 360 183.3 396 182.3 432C181.3 468 202.7 504 213.3 522L224 540L0 540L0 522C0 504 0 468 0 432C0 396 0 360 0 324C0 288 0 252 0 216C0 180 0 144 0 108C0 72 0 36 0 18L0 0Z" fill="#ccdef9" stroke-linecap="round" stroke-linejoin="miter"></path></svg>