<svg id="visual" viewBox="0 0 960 540" width="960" height="540" xmlns="http://www.w3.org/2000/svg" xmlns:xlink="http://www.w3.org/1999/xlink" version="1.1"><path d="M0 507L8.5 506.8C17 506.7 34 506.3 50.8 506.7C67.7 507 84.3 508 101.2 510.2C118 512.3 135 515.7 151.8 515.2C168.7 514.7 185.3 510.3 202.2 509.5C219 508.7 236 511.3 252.8 513.7C269.7 516 286.3 518 303.2 519C320 520 337 520 353.8 517.2C370.7 514.3 387.3 508.7 404.2 508C421 507.3 438 511.7 454.8 511.8C471.7 512 488.3 508 505.2 505.7C522 503.3 539 502.7 555.8 502.3C572.7 502 589.3 502 606.2 505.3C623 508.7 640 515.3 656.8 516.8C673.7 518.3 690.3 514.7 707.2 514.7C724 514.7 741 518.3 757.8 518.2C774.7 518 791.3 514 808.2 512.7C825 511.3 842 512.7 858.8 513C875.7 513.3 892.3 512.7 909.2 511.3C926 510 943 508 951.5 507L960 506L960 541L951.5 541C943 541 926 541 909.2 541C892.3 541 875.7 541 858.8 541C842 541 825 541 808.2 541C791.3 541 774.7 541 757.8 541C741 541 724 541 707.2 541C690.3 541 673.7 541 656.8 541C640 541 623 541 606.2 541C589.3 541 572.7 541 555.8 541C539 541 522 541 505.2 541C488.3 541 471.7 541 454.8 541C438 541 421 541 404.2 541C387.3 541 370.7 541 353.8 541C337 541 320 541 303.2 541C286.3 541 269.7 541 252.8 541C236 541 219 541 202.2 541C185.3 541 168.7 541 151.8 541C135 541 118 541 101.2 541C84.3 541 67.7 541 50.8 541C34 541 17 541 8.5 541L0 541Z" fill="#4388ef" stroke-linecap="round" stroke-linejoin="miter"></path></svg>